<?xml version="1.0" standalone="no"?>
<!DOCTYPE svg PUBLIC "-//W3C//DTD SVG 20010904//EN"
 "http://www.w3.org/TR/2001/REC-SVG-20010904/DTD/svg10.dtd">
<svg version="1.0" xmlns="http://www.w3.org/2000/svg"
 width="585.000000pt" height="427.000000pt" viewBox="0 0 585.000000 427.000000"
 preserveAspectRatio="xMidYMid meet">

<g transform="translate(0.000000,427.000000) scale(0.100000,-0.100000)"
fill="#000000" stroke="none">
<path d="M3030 4231 c-56 -12 -93 -36 -150 -98 -73 -80 -92 -126 -92 -227 -1
-149 56 -225 277 -371 169 -111 328 -190 385 -190 79 0 140 85 161 224 12 85
7 224 -10 245 -4 6 -14 29 -21 51 -42 134 -156 276 -263 328 -81 40 -199 55
-287 38z m375 -311 c118 -60 120 -62 137 -108 21 -57 24 -261 5 -305 -12 -28
-13 -28 -29 -10 -9 10 -48 80 -88 156 -39 76 -87 160 -107 185 -20 26 -42 61
-51 79 -14 30 -12 63 5 63 5 0 62 -27 128 -60z"/>
<path d="M2539 3635 c-33 -19 -59 -47 -92 -98 -46 -71 -47 -73 -47 -157 0 -82
26 -205 62 -300 30 -81 108 -162 181 -189 16 -6 115 -16 220 -21 325 -18 534
-48 772 -111 61 -16 142 -35 180 -44 66 -14 188 -58 210 -76 6 -4 29 -11 50
-14 37 -5 44 -2 88 39 52 50 61 87 30 124 -18 21 -152 60 -333 97 -227 46
-355 89 -545 180 -197 96 -262 167 -273 300 -6 78 -9 82 -157 166 -60 34 -127
76 -148 93 -54 43 -133 47 -198 11z"/>
<path d="M2208 3470 c-83 -62 -196 -174 -320 -316 -130 -150 -205 -267 -243
-382 -21 -65 -12 -94 49 -150 43 -39 112 -71 216 -98 30 -8 62 -17 72 -20 29
-9 22 31 -16 94 -19 32 -38 73 -41 92 -24 134 120 467 283 657 81 94 102 126
102 153 0 33 -32 24 -102 -30z"/>
<path d="M4365 3417 c-97 -44 -263 -182 -312 -260 l-24 -38 31 -48 c17 -27 76
-93 131 -147 157 -153 178 -196 144 -295 -17 -50 -127 -182 -178 -214 -56 -35
-122 -86 -130 -100 -5 -9 0 -22 13 -35 18 -18 33 -20 131 -20 62 0 139 -4 173
-10 204 -33 255 -43 291 -60 22 -10 90 -39 150 -65 61 -26 134 -60 164 -76 66
-35 85 -36 241 -4 213 43 227 68 139 233 -28 53 -55 102 -59 107 -4 6 -17 26
-28 45 -38 68 -166 276 -231 375 -116 177 -217 301 -376 460 -156 155 -203
182 -270 152z m100 -96 c43 -27 225 -217 250 -260 14 -24 75 -99 163 -198 39
-46 72 -89 72 -97 0 -39 -25 -31 -245 87 -66 35 -199 105 -295 156 -96 51
-187 102 -202 113 -30 21 -37 52 -14 65 7 4 33 25 57 45 71 59 142 106 164
107 11 0 34 -8 50 -18z"/>
<path d="M293 2842 c-11 -7 -16 -26 -14 -49 0 -7 20 -26 44 -43 107 -77 177
-136 177 -150 0 -9 -6 -25 -14 -35 -13 -19 -15 -19 -54 -1 -49 22 -67 17 -88
-27 -15 -31 -15 -35 4 -68 l19 -34 84 -2 c46 -1 90 -2 97 -2 19 -1 14 -28 -13
-70 -32 -48 -106 -181 -180 -326 -31 -60 -71 -124 -87 -142 -19 -19 -28 -38
-25 -47 13 -33 45 -15 103 57 170 209 381 363 526 383 54 7 96 -8 388 -146
381 -178 417 -199 488 -284 63 -73 182 -247 182 -264 0 -5 6 -15 14 -21 13
-11 93 -146 130 -218 l17 -33 568 0 c640 0 619 -2 559 67 -55 63 -124 156
-142 191 -14 26 -15 37 -5 48 15 18 62 17 114 -1 22 -8 48 -15 58 -15 26 0 87
-33 217 -118 185 -121 266 -162 325 -162 28 0 72 -7 99 -15 56 -17 156 -20
156 -5 0 6 -8 10 -17 10 -23 0 32 46 65 55 70 18 411 182 549 264 148 88 253
200 253 271 0 30 -74 106 -130 135 -153 78 -194 93 -428 150 -72 17 -253 20
-322 4 -49 -10 -188 -61 -316 -115 -45 -19 -102 -41 -125 -48 -41 -13 -286
-102 -530 -193 -98 -37 -379 -180 -474 -242 -69 -45 -96 -54 -113 -37 -16 16
-9 24 73 90 50 40 54 66 17 123 -36 56 -51 115 -52 196 0 43 -5 62 -20 77 -24
24 -28 24 -72 5 -57 -23 -224 -48 -286 -42 -137 14 -213 28 -297 56 -153 51
-379 130 -400 141 -11 5 -67 28 -125 49 -111 42 -257 102 -352 144 -46 21 -58
31 -58 49 0 17 -17 33 -68 66 -85 54 -149 108 -140 118 4 4 52 9 106 12 79 4
123 -1 232 -22 74 -15 164 -36 200 -48 92 -30 256 -108 315 -150 195 -139 672
-308 917 -325 l87 -6 15 -39 c9 -21 16 -46 16 -55 0 -19 13 -60 48 -155 24
-64 27 -68 57 -68 56 0 154 39 400 157 132 63 281 130 330 148 50 18 158 67
240 109 83 41 161 77 175 80 43 7 184 93 208 126 29 38 24 85 -11 118 -30 28
-157 92 -184 92 -12 0 -52 11 -90 24 -312 108 -539 138 -658 87 -102 -44 -182
-85 -243 -125 -82 -52 -178 -143 -204 -194 l-17 -33 -38 17 c-66 29 -113 33
-361 34 -177 0 -261 4 -310 15 -37 8 -115 19 -174 23 -98 8 -109 11 -147 41
-22 18 -50 45 -60 60 -19 26 -87 198 -98 249 -3 13 -17 28 -30 33 -29 11
-1082 12 -1100 1z"/>
<path d="M5024 1888 c-79 -82 -165 -191 -196 -250 -37 -69 -113 -141 -237
-226 -47 -31 -86 -63 -89 -69 -4 -15 42 -17 162 -6 76 6 78 7 101 43 49 78
208 160 377 194 136 27 163 29 177 12 18 -21 6 -35 -59 -70 -41 -22 -61 -27
-103 -24 -46 3 -52 1 -52 -16 0 -15 17 -25 80 -46 76 -24 168 -71 181 -91 3
-5 77 -9 164 -9 130 0 161 3 174 16 14 14 14 19 -4 54 -11 21 -62 78 -115 126
-52 48 -95 91 -95 95 0 5 21 9 47 11 54 3 66 22 39 62 -20 32 -406 223 -466
231 -43 6 -47 5 -86 -37z"/>
<path d="M955 1816 c-22 -8 -54 -16 -71 -19 -51 -9 -196 -82 -261 -131 -64
-48 -202 -193 -232 -243 -15 -24 -16 -32 -4 -60 7 -18 16 -33 21 -33 4 1 18
24 32 53 35 74 184 226 261 267 102 54 168 35 169 -48 0 -26 -12 -46 -62 -100
-34 -37 -75 -78 -92 -92 -47 -40 -66 -59 -66 -70 0 -6 28 -10 64 -10 56 0 69
4 93 26 97 91 134 110 238 123 55 7 91 4 168 -10 103 -20 140 -38 221 -108
l47 -41 172 0 c177 0 208 6 231 43 7 11 8 21 1 31 -51 68 -83 107 -124 150
-53 56 -176 166 -186 166 -11 0 -140 65 -143 72 -2 5 -14 8 -26 8 -13 0 -26 3
-30 8 -4 4 -17 8 -29 9 -12 1 -47 7 -77 12 -82 14 -268 12 -315 -3z"/>
<path d="M1435 1270 c-4 -6 -98 -10 -250 -10 -211 0 -244 -2 -239 -15 6 -15
-29 -133 -52 -175 -8 -14 -33 -77 -55 -140 -22 -63 -48 -123 -56 -132 -15 -17
-5 -18 208 -18 160 0 228 -3 237 -12 14 -14 14 -15 46 52 22 47 23 55 10 58
-9 2 -21 -1 -27 -7 -11 -11 -298 -16 -309 -5 -4 3 3 32 14 65 l20 59 97 0 c61
0 101 -4 109 -12 9 -9 15 -3 26 23 23 54 30 89 18 89 -6 0 -14 -4 -17 -10 -6
-10 -187 -14 -197 -4 -3 3 2 26 12 52 l18 47 153 3 c95 1 156 -1 163 -8 5 -5
22 -10 36 -10 22 0 29 7 43 48 9 26 17 53 17 60 0 14 -16 16 -25 2z"/>
<path d="M4355 1270 c-4 -6 -93 -10 -235 -10 -221 0 -228 -1 -223 -20 7 -26
-125 -409 -150 -437 l-20 -23 230 0 c176 0 232 -3 236 -12 7 -19 21 0 41 55
20 54 17 64 -12 48 -31 -16 -322 -15 -321 2 0 6 8 35 18 62 l18 50 106 3 c69
2 107 -1 107 -8 0 -28 21 -4 40 46 21 57 20 78 -2 56 -8 -8 -49 -12 -116 -12
-85 0 -103 3 -99 14 3 8 11 32 18 55 l12 41 153 0 c91 0 155 -4 159 -10 13
-20 24 -9 44 45 12 31 21 58 21 60 0 9 -19 5 -25 -5z"/>
<path d="M2310 1250 c-129 -44 -199 -199 -111 -245 16 -8 80 -21 141 -28 61
-8 116 -19 122 -25 14 -14 -4 -60 -24 -66 -7 -2 -38 -12 -69 -21 -38 -12 -69
-16 -100 -11 -52 8 -109 39 -109 60 0 34 -24 25 -71 -25 -27 -29 -46 -56 -42
-60 5 -4 44 -19 88 -34 69 -24 90 -27 155 -22 131 10 233 49 276 105 40 51 37
143 -5 169 -11 7 -59 17 -108 23 -163 21 -168 22 -168 49 0 37 45 64 115 69
80 6 145 -13 174 -50 l23 -30 46 53 46 53 -37 14 c-93 34 -131 42 -206 42 -53
-1 -100 -7 -136 -20z"/>
<path d="M177 1238 c5 -25 -78 -276 -125 -379 -17 -37 -36 -69 -44 -72 -7 -3
24 -6 70 -6 75 -1 83 1 78 17 -6 17 67 239 84 256 12 12 14 6 40 -134 12 -63
26 -119 31 -124 5 -6 18 -1 32 12 13 12 28 22 34 22 6 0 63 52 128 116 64 64
118 114 121 112 5 -6 -74 -239 -87 -254 -15 -18 1 -24 69 -24 53 0 63 3 58 15
-7 18 130 424 151 448 15 16 11 17 -75 17 -82 0 -92 -2 -92 -18 0 -31 -222
-264 -233 -245 -2 4 -8 30 -12 57 -9 63 -14 76 -31 76 -14 0 -22 22 -26 74 -2
23 3 33 22 43 22 11 11 13 -86 13 -110 0 -111 0 -107 -22z"/>
<path d="M1554 1243 c2 -10 -26 -106 -63 -213 -57 -164 -71 -195 -89 -198 -11
-2 -28 -14 -36 -28 l-16 -24 91 0 c79 0 90 2 85 16 -3 8 13 68 35 132 22 64
43 125 46 135 9 29 20 20 70 -54 102 -152 126 -198 113 -214 -11 -13 -3 -15
64 -15 68 0 76 2 76 19 0 32 137 422 156 442 17 18 15 19 -54 19 -68 0 -72 -1
-72 -22 0 -35 -84 -268 -95 -265 -8 3 -140 204 -161 246 -4 8 0 19 11 27 16
12 7 14 -74 14 -83 0 -92 -2 -87 -17z"/>
<path d="M2967 1241 c3 -13 -14 -40 -57 -87 -34 -38 -110 -127 -168 -199 -59
-71 -117 -140 -131 -152 l-24 -23 83 0 c72 0 81 2 76 16 -4 10 6 33 26 60 l33
43 111 1 112 0 5 -37 c3 -23 -1 -47 -9 -60 l-14 -23 90 0 90 0 -14 23 c-8 12
-27 111 -42 220 -23 161 -26 201 -16 217 12 19 9 20 -72 20 -77 0 -84 -1 -79
-19z m46 -193 c3 -34 3 -66 1 -70 -7 -11 -134 -10 -134 1 0 5 22 33 50 63 27
29 50 56 50 61 0 4 6 7 14 7 9 0 15 -19 19 -62z"/>
<path d="M3650 1237 c0 -30 -93 -307 -114 -339 -9 -14 -28 -30 -42 -36 -57
-27 -170 -3 -181 38 -10 39 -30 22 -99 -84 l-19 -30 24 7 c14 3 52 0 85 -8
116 -28 221 -16 284 32 44 33 58 57 98 165 19 51 41 108 50 125 8 18 21 52 30
75 8 23 22 50 31 60 15 17 12 18 -65 18 -79 0 -82 -1 -82 -23z"/>
<path d="M4506 1242 c3 -9 -5 -46 -18 -82 -18 -49 -28 -66 -44 -68 -18 -3 -29
-25 -64 -130 -23 -70 -51 -139 -61 -154 l-20 -28 96 0 95 0 0 29 c0 17 12 62
26 101 l27 71 61 -3 61 -3 27 -78 c21 -60 25 -83 18 -98 -10 -18 -6 -19 75
-19 l85 0 -15 23 c-14 22 -68 169 -62 172 1 1 28 14 59 29 74 35 115 82 123
141 15 98 -27 115 -288 115 -172 0 -185 -1 -181 -18z m328 -68 c19 -7 21 -52
3 -75 -23 -30 -56 -39 -150 -39 -51 0 -96 3 -100 6 -5 5 3 32 28 102 5 13 188
18 219 6z"/>
<path d="M5124 1243 c8 -20 -128 -419 -152 -445 -14 -17 -11 -18 63 -18 63 0
76 3 72 15 -4 8 1 36 10 62 75 226 127 371 140 386 15 16 12 17 -62 17 -68 0
-76 -2 -71 -17z"/>
<path d="M5573 1246 c10 -25 -94 -156 -124 -156 -10 0 -19 -3 -19 -7 0 -5 -23
-33 -51 -63 -28 -30 -72 -80 -97 -110 -25 -30 -62 -72 -81 -92 l-35 -38 81 0
c72 0 81 2 77 18 -3 10 10 34 34 60 l38 42 116 0 c96 0 117 -3 122 -16 11 -29
6 -67 -11 -86 -15 -17 -12 -18 87 -18 98 0 102 1 87 18 -9 9 -19 42 -22 72 -4
30 -11 64 -16 75 -5 11 -18 76 -28 145 -16 108 -17 128 -5 148 l14 22 -86 0
c-69 0 -85 -3 -81 -14z m41 -173 c3 -21 6 -53 6 -70 l0 -33 -60 0 c-38 0 -60
4 -60 11 0 13 91 129 101 129 4 0 9 -17 13 -37z"/>
<path d="M2756 600 c-95 -37 -147 -116 -126 -189 8 -30 7 -34 -22 -49 -50 -27
-120 -94 -134 -129 -8 -18 -14 -52 -14 -77 0 -107 117 -154 268 -107 33 10 74
28 91 40 l31 22 37 -30 c26 -20 54 -32 89 -37 l51 -6 21 59 c12 33 22 65 22
72 0 14 -17 15 -25 1 -10 -17 -41 -11 -61 11 -18 21 -18 21 24 61 36 33 49 39
72 35 27 -6 29 -4 54 68 31 87 31 85 9 85 -32 -1 -101 -38 -146 -79 -24 -23
-49 -41 -54 -41 -8 0 -33 41 -33 55 0 2 16 13 35 25 62 38 95 138 61 182 -36
48 -162 62 -250 28z m125 -80 c29 -16 24 -57 -11 -90 -37 -34 -77 -43 -108
-24 -33 22 -37 42 -15 72 35 47 91 64 134 42z m-69 -228 c43 -42 18 -99 -57
-133 -54 -25 -106 -24 -140 2 -22 18 -26 27 -21 52 8 37 40 74 81 93 40 19
112 12 137 -14z"/>
<path d="M2113 596 c6 -15 -6 -35 -73 -117 -25 -30 -109 -134 -187 -231 -79
-97 -149 -178 -158 -182 -8 -3 -15 -10 -15 -16 0 -11 172 -15 183 -3 4 3 2 12
-3 18 -8 9 2 28 35 69 l46 56 118 0 119 0 6 -31 c10 -54 7 -78 -14 -91 -11 -7
-20 -16 -20 -20 0 -5 50 -8 110 -8 61 0 110 3 110 7 0 3 -6 14 -14 22 -8 10
-27 114 -47 258 -32 236 -33 242 -15 262 l19 21 -103 0 c-83 0 -101 -3 -97
-14z m51 -243 c7 -71 6 -73 -16 -74 -34 -2 -122 3 -127 6 -2 2 25 38 59 80 34
42 66 73 70 68 4 -4 11 -41 14 -80z"/>
<path d="M3313 596 c8 -19 -156 -502 -178 -526 -8 -9 -15 -20 -15 -24 0 -4
107 -6 238 -4 261 4 277 8 348 70 69 61 96 169 54 218 l-20 23 29 18 c45 27
74 76 79 133 3 45 1 54 -23 76 l-27 25 -245 3 c-220 3 -245 2 -240 -12z m378
-86 c27 -15 24 -45 -10 -82 l-29 -33 -117 -3 c-68 -2 -121 0 -127 6 -6 6 -4
29 8 66 l18 56 118 0 c66 0 128 -5 139 -10z m-62 -229 c17 -17 18 -26 11 -53
-6 -18 -21 -44 -35 -58 -24 -24 -31 -25 -160 -28 -78 -2 -135 0 -135 6 0 7 25
87 45 140 3 9 39 12 130 12 111 0 127 -2 144 -19z"/>
</g>
</svg>
